HIERARCHY
ROOT Hips
{
  OFFSET 1.44925e-005 102.336 -0.101585
  CHANNELS 6 Xposition Yposition Zposition Zrotation Xrotation Yrotation
  JOINT LeftUpLeg
  {
    OFFSET 8.9458 -8.66707 0.101652
    CHANNELS 3 Zrotation Xrotation Yrotation
    JOINT LeftLeg
    {
      OFFSET 0 -44.4227 1.3727
      CHANNELS 3 Zrotation Xrotation Yrotation
      JOINT LeftFoot
      {
        OFFSET -0.253549 -42.0924 -1.46059
        CHANNELS 3 Zrotation Xrotation Yrotation
        JOINT LeftToes
        {
          OFFSET -0.04 -4.41509 8.4991
          CHANNELS 3 Zrotation Xrotation Yrotation
          End Site
          {
            OFFSET 0.08 -0.047448 9.77979
          }
        }
      }
    }
  }
  JOINT Spine
  {
    OFFSET 0 11.8905 0
    CHANNELS 3 Zrotation Xrotation Yrotation
    JOINT Spine1
    {
      OFFSET 0 25.6574 0.127663
      CHANNELS 3 Zrotation Xrotation Yrotation
      JOINT RightShoulder
      {
        OFFSET -8.99 -0.362252 -0.22
        CHANNELS 3 Zrotation Xrotation Yrotation
        JOINT RightArm
        {
          OFFSET -10.2827 -0.00338 0.322123
          CHANNELS 3 Zrotation Xrotation Yrotation
          JOINT RightForeArm
          {
            OFFSET -26.364 0.099144 -1.42434
            CHANNELS 3 Zrotation Xrotation Yrotation
            JOINT RightHand
            {
              OFFSET -22.0324 0.085362 1.02216
              CHANNELS 3 Zrotation Xrotation Yrotation
              End Site
              {
                OFFSET -13.3284 -0.6 1.50291
              }
            }
          }
        }
      }
      JOINT LeftShoulder1
      {
        OFFSET 8.99 -0.362252 -0.22
        CHANNELS 3 Zrotation Xrotation Yrotation
        JOINT LeftArm
        {
          OFFSET 10.2827 -0.00337999 0.322123
          CHANNELS 3 Zrotation Xrotation Yrotation
          JOINT LeftForeArm
          {
            OFFSET 26.2597 0.099144 -1.42434
            CHANNELS 3 Zrotation Xrotation Yrotation
            JOINT LeftHand
            {
              OFFSET 22.0902 0.085362 1.02216
              CHANNELS 3 Zrotation Xrotation Yrotation
              End Site
              {
                OFFSET 13.419 -0.6 1.50291
              }
            }
          }
        }
      }
      JOINT Head
      {
        OFFSET 0 8.73416 0.011341
        CHANNELS 3 Zrotation Xrotation Yrotation
        End Site
        {
          OFFSET -0.29 12.7742 2.51395
        }
      }
    }
  }
  JOINT RightUpLeg
  {
    OFFSET -8.9458 -8.66707 0.101652
    CHANNELS 3 Zrotation Xrotation Yrotation
    JOINT RightLeg
    {
      OFFSET 0 -44.4227 1.3727
      CHANNELS 3 Zrotation Xrotation Yrotation
      JOINT RightFoot
      {
        OFFSET 0.253549 -42.0924 -1.46059
        CHANNELS 3 Zrotation Xrotation Yrotation
        JOINT RightToes
        {
          OFFSET 0.04 -4.41509 8.4991
          CHANNELS 3 Zrotation Xrotation Yrotation
          End Site
          {
            OFFSET -0.08 -0.137448 9.77979
          }
        }
      }
    }
  }
}
MOTION
Frames:	12
Frame Time:	0.0333333
19.6041 97.9175 4.18259 -9.77858 2.78915 -88.529 1.67078 -14.1172 -3.48583 3.5547 76.2815 13.8338 -7.06083 -8.03623 0.00850591 -1.35936e-009 8.75222e-006 -1.47691e-008 13.99 11.8019 -0.24419 -5.63323 0.804995 3.41614 34.543 1.69836 0.142559 43.413 -15.3689 31.5024 9.98034 39.6735 5.92566 -9.65913 9.4897 -0.104064 -44.3029 3.54281 -3.44884 -26.4176 -18.5053 14.1553 -15.2675 52.7797 1.15817 5.82328 9.61819 -0.917488 0.906515 -11.3899 -11.2606 5.54241 -6.57284 -3.77039 -0.928281 32.5262 -17.6163 2.09729 -20.4219 -0.0172927 0.0462048 0.000530889 0.662642 
16.4602 98.4922 3.96163 -9.84819 1.99253 -88.9827 0.446297 -17.4044 -3.63462 2.84122 72.8405 14.3586 -7.30775 -10.2771 -0.124697 -1.35936e-009 8.75222e-006 -1.47691e-008 13.8769 11.8841 0.365811 -6.86321 0.336741 4.06574 33.4519 1.66427 0.158256 42.1704 -12.2202 33.6922 8.37229 34.7819 9.43964 -9.79512 9.47202 0.0462101 -44.0033 3.50534 -3.42004 -25.5968 -16.4459 19.7209 -12.7988 49.846 -2.4428 5.82328 9.61819 -0.917488 0.498982 -10.7618 -11.6736 4.5928 -3.29348 -4.38395 -0.692782 30.4617 -16.5766 2.32868 -21.4234 0.0238163 0.0462048 0.000530889 0.662642 
13.4206 98.8895 3.77832 -9.92905 1.25521 -89.6421 -0.360671 -19.8738 -3.30519 2.15601 67.3199 14.7769 -8.29421 -12.1377 -0.270592 -1.35936e-009 8.75222e-006 -1.47691e-008 13.61 12.0261 0.991013 -8.08081 0.118419 4.66549 32.5147 1.63338 0.167638 40.3435 -8.96313 35.5694 6.97589 29.051 12.8775 -10.0939 9.44062 0.266278 -43.8004 3.47895 -3.39828 -24.7275 -15.9336 24.0717 -11.4762 47.8891 -4.19472 5.82328 9.61819 -0.917488 0.0778152 -10.6136 -11.9999 3.72014 -0.0569819 -4.80818 -0.592532 28.339 -15.5261 2.5682 -22.4991 0.0710064 0.0462048 0.000530889 0.662642 
10.4567 99.2005 3.62532 -9.89978 0.577443 -90.2722 -0.910823 -21.6734 -2.74965 1.64715 59.9063 15.2325 -8.94119 -12.5297 -0.3256 -1.35936e-009 8.75222e-006 -1.47691e-008 13.1688 12.1135 1.53978 -9.20347 0.0468434 5.12105 31.8764 1.60976 0.167197 38.2531 -6.06027 37.212 5.76396 24.1743 16.013 -10.4061 9.4034 0.53634 -43.6705 3.46662 -3.39274 -23.2621 -17.323 27.3509 -11.3696 47.718 -3.86939 5.82328 9.61819 -0.917488 -0.267035 -10.7662 -12.1127 2.90839 3.07512 -5.19629 -0.541356 25.9905 -14.5442 2.53217 -23.3326 0.0802442 0.0462048 0.000530889 0.662642 
7.53403 99.4211 3.49555 -9.67404 0.0239463 -90.6754 -1.33074 -22.7867 -2.42727 1.33603 50.9092 15.9789 -9.25447 -11.961 -0.295996 -1.35936e-009 8.75222e-006 -1.47691e-008 12.6405 12.0362 1.91823 -10.0847 0.0274858 5.35734 31.6972 1.60076 0.160745 36.2921 -3.95005 38.466 4.73348 20.7762 18.7863 -10.5788 9.37788 0.736877 -43.6452 3.46878 -3.40064 -21.5244 -19.4719 29.5476 -12.1166 48.3713 -2.07951 5.82328 9.61819 -0.917488 -0.426669 -10.9992 -11.9729 2.23369 5.93961 -5.63819 -0.390065 23.6086 -13.6178 2.74585 -23.9245 0.121856 0.0462048 0.000530889 0.662642 
4.58646 99.4523 3.39501 -9.24548 -0.289154 -90.9975 -1.57056 -23.1864 -2.40646 1.15701 40.9485 16.7107 -9.57275 -11.2772 -0.254176 -1.35936e-009 8.75222e-006 -1.47691e-008 12.0628 11.6823 2.16555 -10.6563 0.142151 5.44444 31.9094 1.60613 0.154475 35.2137 -3.07995 39.2107 4.01095 19.0198 21.0897 -10.7802 9.35937 0.82893 -43.7091 3.47416 -3.40253 -20.4992 -20.8511 30.467 -13.0346 48.6752 -0.128133 5.82328 9.61819 -0.917488 -0.339798 -11.2878 -11.663 1.73464 8.4342 -6.07588 -0.156375 21.5753 -12.7314 3.32492 -24.6159 0.22334 0.0462048 0.000530889 0.662642 
1.57849 99.3705 3.33184 -8.68148 -0.602043 -91.4793 -1.70101 -22.9667 -2.29335 1.05731 30.751 16.9424 -9.32712 -10.3918 -0.179288 -1.35936e-009 8.75222e-006 -1.47691e-008 11.1898 11.0986 2.41709 -11.0448 0.482635 5.53402 32.2378 1.61645 0.150064 35.4919 -3.31805 39.4199 3.59114 18.8852 22.8175 -11.0952 9.33926 0.864188 -43.8225 3.4774 -3.39188 -20.5194 -21.1018 30.2128 -13.6442 48.7189 0.918375 5.82328 9.61819 -0.917488 -0.0808826 -11.6674 -11.2545 1.23495 10.7841 -6.38033 -0.0567374 19.5876 -11.9004 3.59781 -25.2577 0.282069 0.0462048 0.000530889 0.662642 
-1.50892 99.2072 3.34527 -8.116 -1.01265 -92.2097 -1.80503 -22.3839 -2.05545 0.849733 21.4873 17.0814 -8.37222 -9.71639 -0.108504 -1.35936e-009 8.75222e-006 -1.47691e-008 10.072 10.5233 2.62668 -11.3329 0.873423 5.61989 32.5154 1.62952 0.157586 36.5052 -3.55285 39.0496 3.33838 19.5394 23.9005 -11.2222 9.33018 0.88575 -43.9854 3.48823 -3.38895 -21.0718 -20.9671 29.1762 -13.7828 48.8339 0.941027 5.82328 9.61819 -0.917488 0.218167 -12.0629 -10.7029 0.641828 13.0615 -6.57775 -0.234787 17.7185 -11.0282 3.76641 -25.821 0.325454 0.0462048 0.000530889 0.662642 
-4.75968 98.8098 3.49727 -7.6521 -1.27463 -92.9681 -1.8312 -21.917 -2.46396 0.379839 15.3118 18.7356 -7.61019 -10.3919 -0.136407 -1.35936e-009 8.75222e-006 -1.47691e-008 9.23649 10.1181 2.64138 -11.5576 1.00799 5.56568 32.7698 1.64873 0.182976 37.2815 -2.6945 38.0002 3.22536 19.8011 24.2108 -11.0521 9.33849 0.899129 -44.1507 3.5064 -3.40013 -21.6608 -21.2826 27.4524 -13.5987 48.7037 0.654353 5.82328 9.61819 -0.917488 0.479544 -12.3669 -10.0117 0.0416283 14.9916 -6.81923 -0.580508 16.9523 -9.87848 4.85175 -26.7305 0.540819 0.0462048 0.000530889 0.662642 
-8.22727 98.1535 3.81107 -7.28193 -1.2635 -93.7288 -1.84931 -21.8717 -2.50975 0.174078 13.8196 21.6399 -7.21109 -11.9005 -0.212839 -1.35936e-009 8.75222e-006 -1.47691e-008 8.96619 9.81032 2.51516 -11.8545 0.914368 5.42795 33.0457 1.6689 0.20841 37.6618 -0.783167 36.2738 3.38241 19.3799 23.5948 -10.9902 9.34296 0.887319 -44.207 3.51604 -3.41066 -22.2614 -22.2739 24.8355 -13.4945 48.1839 0.791406 5.82328 9.61819 -0.917488 0.669669 -12.5751 -9.33436 -0.542594 16.4686 -6.9854 -0.995264 17.6662 -8.42592 6.61994 -27.8344 0.908156 0.0462048 0.000530889 0.662642 
-11.9252 97.366 4.24608 -7.05173 -1.09678 -94.8047 -1.84332 -21.935 -1.43555 0.258852 16.1279 24.7855 -6.05648 -11.5586 -0.158493 -1.35936e-009 8.75222e-006 -1.47691e-008 8.82968 9.48267 2.46195 -12.0629 0.843447 5.36889 33.4179 1.68608 0.216677 37.7445 1.78292 34.0372 3.8918 18.6594 21.9415 -11.1582 9.33996 0.81736 -44.1618 3.51994 -3.42507 -23.1551 -23.4113 21.3401 -13.5473 47.5637 1.22134 5.82328 9.61819 -0.917488 0.831571 -12.7086 -8.6549 -1.19815 17.7353 -6.3192 -1.53267 19.3835 -7.28309 8.25336 -28.6569 1.26902 0.0462048 0.000530889 0.662642 
-15.8037 96.5996 4.71213 -7.1684 -1.16495 -96.1813 -2.03706 -21.8004 0.676406 0.57717 20.0667 26.3169 -3.44379 -8.08873 0.0109217 -1.35936e-009 8.75222e-006 -1.47691e-008 7.7264 9.312 2.4885 -11.5842 0.782726 5.20744 34.0848 1.71069 0.215455 38.6084 2.6706 31.4854 4.91204 20.7763 18.7477 -11.0614 9.35187 0.740605 -44.1805 3.54125 -3.46412 -24.2685 -24.2493 17.3145 -13.6641 47.2614 1.54675 5.82328 9.61819 -0.917488 1.125 -12.6776 -7.63655 -2.23351 19.009 -3.16006 -1.71526 21.941 -8.16895 10.8527 -29.0693 1.81274 0.0462048 0.000530889 0.662642 
